<?xml version="1.0" encoding="UTF-8" standalone="no"?>
<!DOCTYPE svg PUBLIC "-//W3C//DTD SVG 1.1//EN"
 "http://www.w3.org/Graphics/SVG/1.1/DTD/svg11.dtd">
<!-- Generated by graphviz version 3.0.0 (20220226.1711)
 -->
<!-- Title: dependencies Pages: 1 -->
<svg width="519pt" height="174pt"
 viewBox="0.00 0.00 519.00 173.80" xmlns="http://www.w3.org/2000/svg" xmlns:xlink="http://www.w3.org/1999/xlink">
<g id="graph0" class="graph" transform="scale(1 1) rotate(0) translate(4 169.8)">
<title>dependencies</title>
<polygon fill="white" stroke="transparent" points="-4,4 -4,-169.8 515,-169.8 515,4 -4,4"/>
<text text-anchor="middle" x="255.5" y="-8.2" font-family="sans-serif" font-size="14.00">dependencies</text>
<g id="clust1" class="cluster">
<title>cluster_CoursesModule</title>
<polygon fill="none" stroke="black" stroke-dasharray="1,5" points="8,-32.8 8,-157.8 503,-157.8 503,-32.8 8,-32.8"/>
</g>
<g id="clust6" class="cluster">
<title>cluster_CoursesModule_providers</title>
<polygon fill="none" stroke="black" points="16,-40.8 16,-92.8 495,-92.8 495,-40.8 16,-40.8"/>
</g>
<!-- CourseService -->
<g id="node1" class="node">
<title>CourseService</title>
<ellipse fill="#fdb462" stroke="black" cx="420" cy="-66.8" rx="67.2" ry="18"/>
<text text-anchor="middle" x="420" y="-62.6" font-family="Times,serif" font-size="14.00">CourseService</text>
</g>
<!-- CoursesModule -->
<g id="node4" class="node">
<title>CoursesModule</title>
<polygon fill="#8dd3c7" stroke="black" points="310.16,-149.8 307.16,-153.8 286.16,-153.8 283.16,-149.8 205.84,-149.8 205.84,-113.8 310.16,-113.8 310.16,-149.8"/>
<text text-anchor="middle" x="258" y="-127.6" font-family="Times,serif" font-size="14.00">CoursesModule</text>
</g>
<!-- CourseService&#45;&gt;CoursesModule -->
<g id="edge1" class="edge">
<title>CourseService&#45;&gt;CoursesModule</title>
<path fill="none" stroke="black" d="M420,-84.91C420,-104.14 420,-131.8 420,-131.8 420,-131.8 320.6,-131.8 320.6,-131.8"/>
<polygon fill="black" stroke="black" points="320.6,-128.3 310.6,-131.8 320.6,-135.3 320.6,-128.3"/>
</g>
<!-- ProfessorService -->
<g id="node2" class="node">
<title>ProfessorService</title>
<ellipse fill="#fdb462" stroke="black" cx="258" cy="-66.8" rx="76.44" ry="18"/>
<text text-anchor="middle" x="258" y="-62.6" font-family="Times,serif" font-size="14.00">ProfessorService</text>
</g>
<!-- ProfessorService&#45;&gt;CoursesModule -->
<g id="edge2" class="edge">
<title>ProfessorService&#45;&gt;CoursesModule</title>
<path fill="none" stroke="black" d="M258,-84.91C258,-84.91 258,-103.79 258,-103.79"/>
<polygon fill="black" stroke="black" points="254.5,-103.79 258,-113.79 261.5,-103.79 254.5,-103.79"/>
</g>
<!-- StudentService -->
<g id="node3" class="node">
<title>StudentService</title>
<ellipse fill="#fdb462" stroke="black" cx="94" cy="-66.8" rx="69.5" ry="18"/>
<text text-anchor="middle" x="94" y="-62.6" font-family="Times,serif" font-size="14.00">StudentService</text>
</g>
<!-- StudentService&#45;&gt;CoursesModule -->
<g id="edge3" class="edge">
<title>StudentService&#45;&gt;CoursesModule</title>
<path fill="none" stroke="black" d="M94,-84.91C94,-104.14 94,-131.8 94,-131.8 94,-131.8 195.66,-131.8 195.66,-131.8"/>
<polygon fill="black" stroke="black" points="195.66,-135.3 205.66,-131.8 195.66,-128.3 195.66,-135.3"/>
</g>
</g>
</svg>
