<?xml version="1.0" encoding="UTF-8" standalone="no"?>
<!DOCTYPE svg PUBLIC "-//W3C//DTD SVG 1.1//EN"
 "http://www.w3.org/Graphics/SVG/1.1/DTD/svg11.dtd">
<!-- Generated by graphviz version 3.0.0 (20220226.1711)
 -->
<!-- Title: dependencies Pages: 1 -->
<svg width="673pt" height="174pt"
 viewBox="0.00 0.00 673.00 173.80" xmlns="http://www.w3.org/2000/svg" xmlns:xlink="http://www.w3.org/1999/xlink">
<g id="graph0" class="graph" transform="scale(1 1) rotate(0) translate(4 169.8)">
<title>dependencies</title>
<polygon fill="white" stroke="transparent" points="-4,4 -4,-169.8 669,-169.8 669,4 -4,4"/>
<text text-anchor="middle" x="332.5" y="-8.2" font-family="sans-serif" font-size="14.00">dependencies</text>
<g id="clust1" class="cluster">
<title>cluster_AppModule</title>
<polygon fill="none" stroke="black" stroke-dasharray="1,5" points="8,-32.8 8,-157.8 154,-157.8 154,-32.8 8,-32.8"/>
</g>
<g id="clust6" class="cluster">
<title>cluster_AppModule_providers</title>
<polygon fill="none" stroke="black" points="16,-40.8 16,-92.8 146,-92.8 146,-40.8 16,-40.8"/>
</g>
<g id="clust7" class="cluster">
<title>cluster_CoursesModule</title>
<polygon fill="none" stroke="black" stroke-dasharray="1,5" points="162,-32.8 162,-157.8 657,-157.8 657,-32.8 162,-32.8"/>
</g>
<g id="clust12" class="cluster">
<title>cluster_CoursesModule_providers</title>
<polygon fill="none" stroke="black" points="170,-40.8 170,-92.8 649,-92.8 649,-40.8 170,-40.8"/>
</g>
<!-- AppService -->
<g id="node1" class="node">
<title>AppService</title>
<ellipse fill="#fdb462" stroke="black" cx="81" cy="-66.8" rx="56.75" ry="18"/>
<text text-anchor="middle" x="81" y="-62.6" font-family="Times,serif" font-size="14.00">AppService</text>
</g>
<!-- AppModule -->
<g id="node2" class="node">
<title>AppModule</title>
<polygon fill="#8dd3c7" stroke="black" points="122.66,-149.8 119.66,-153.8 98.66,-153.8 95.66,-149.8 39.34,-149.8 39.34,-113.8 122.66,-113.8 122.66,-149.8"/>
<text text-anchor="middle" x="81" y="-127.6" font-family="Times,serif" font-size="14.00">AppModule</text>
</g>
<!-- AppService&#45;&gt;AppModule -->
<g id="edge1" class="edge">
<title>AppService&#45;&gt;AppModule</title>
<path fill="none" stroke="black" d="M81,-84.91C81,-84.91 81,-103.79 81,-103.79"/>
<polygon fill="black" stroke="black" points="77.5,-103.79 81,-113.79 84.5,-103.79 77.5,-103.79"/>
</g>
<!-- CourseService -->
<g id="node3" class="node">
<title>CourseService</title>
<ellipse fill="#fdb462" stroke="black" cx="574" cy="-66.8" rx="67.2" ry="18"/>
<text text-anchor="middle" x="574" y="-62.6" font-family="Times,serif" font-size="14.00">CourseService</text>
</g>
<!-- CoursesModule -->
<g id="node6" class="node">
<title>CoursesModule</title>
<polygon fill="#8dd3c7" stroke="black" points="464.16,-149.8 461.16,-153.8 440.16,-153.8 437.16,-149.8 359.84,-149.8 359.84,-113.8 464.16,-113.8 464.16,-149.8"/>
<text text-anchor="middle" x="412" y="-127.6" font-family="Times,serif" font-size="14.00">CoursesModule</text>
</g>
<!-- CourseService&#45;&gt;CoursesModule -->
<g id="edge2" class="edge">
<title>CourseService&#45;&gt;CoursesModule</title>
<path fill="none" stroke="black" d="M574,-84.91C574,-104.14 574,-131.8 574,-131.8 574,-131.8 474.6,-131.8 474.6,-131.8"/>
<polygon fill="black" stroke="black" points="474.6,-128.3 464.6,-131.8 474.6,-135.3 474.6,-128.3"/>
</g>
<!-- ProfessorService -->
<g id="node4" class="node">
<title>ProfessorService</title>
<ellipse fill="#fdb462" stroke="black" cx="412" cy="-66.8" rx="76.44" ry="18"/>
<text text-anchor="middle" x="412" y="-62.6" font-family="Times,serif" font-size="14.00">ProfessorService</text>
</g>
<!-- ProfessorService&#45;&gt;CoursesModule -->
<g id="edge3" class="edge">
<title>ProfessorService&#45;&gt;CoursesModule</title>
<path fill="none" stroke="black" d="M412,-84.91C412,-84.91 412,-103.79 412,-103.79"/>
<polygon fill="black" stroke="black" points="408.5,-103.79 412,-113.79 415.5,-103.79 408.5,-103.79"/>
</g>
<!-- StudentService -->
<g id="node5" class="node">
<title>StudentService</title>
<ellipse fill="#fdb462" stroke="black" cx="248" cy="-66.8" rx="69.5" ry="18"/>
<text text-anchor="middle" x="248" y="-62.6" font-family="Times,serif" font-size="14.00">StudentService</text>
</g>
<!-- StudentService&#45;&gt;CoursesModule -->
<g id="edge4" class="edge">
<title>StudentService&#45;&gt;CoursesModule</title>
<path fill="none" stroke="black" d="M248,-84.91C248,-104.14 248,-131.8 248,-131.8 248,-131.8 349.66,-131.8 349.66,-131.8"/>
<polygon fill="black" stroke="black" points="349.66,-135.3 359.66,-131.8 349.66,-128.3 349.66,-135.3"/>
</g>
</g>
</svg>
